<svg width="250" height="250" version="1.1" viewBox="0 0 264.58 264.58" xmlns="http://www.w3.org/2000/svg" xmlns:xlink="http://www.w3.org/1999/xlink">
    <defs>
        <linearGradient id="bunbun_logo_a" x1="485.23" x2="485.23" y1="550.48" y2="704.63" gradientTransform="scale(.26458)" gradientUnits="userSpaceOnUse">
            <stop stop-color="var(--color-bunbun-1)" offset="0"/>
            <stop stop-color="var(--color-bunbun-2)" offset="1"/>
        </linearGradient>
    </defs>
    <path transform="scale(.26458)" d="m224.14 88.068-188.57 40.121v25.076c16.048 2.0061 28.754 4.0115 38.115 6.0176 9.3616 2.0061 16.717 4.3467 22.066 7.0215 5.3495 2.0061 9.3624 4.68 12.037 8.0234 2.6748 2.6748 5.0154 6.3524 7.0215 11.033 8.6929 18.723 13.039 61.855 13.039 129.39v605.83h22.066l47.143-67.203c21.398 24.073 48.48 43.129 81.246 57.172 33.434 14.042 69.209 21.064 107.32 21.064 36.778 0 70.88-7.022 102.31-21.064 31.428-14.042 58.511-33.434 81.246-58.176 23.404-24.741 41.792-53.829 55.166-87.264 13.374-34.103 20.061-70.88 20.061-110.33 0-38.784-6.6868-74.894-20.061-108.33-12.705-34.103-30.76-63.524-54.164-88.266-22.735-24.741-49.816-44.133-81.244-58.176-30.76-14.042-64.196-21.064-100.3-21.064-34.103 0-64.193 6.6868-90.271 20.061-25.41 12.705-48.815 33.101-70.213 61.186h-4.0117v-372.13zm551.7 0v372.13h-4.0117c-21.398-28.085-44.801-48.48-70.211-61.186-26.079-13.374-56.17-20.061-90.273-20.061-31.499 0-60.961 5.3458-88.389 16.031 20.018 11.601 38.219 25.594 54.467 41.887 16.061-7.1747 33.383-10.775 51.977-10.775 27.416 0 51.823 6.6868 73.221 20.061 21.398 12.705 37.781 30.76 49.148 54.164 5.2324 10.465 9.5291 22.332 12.9 35.588l5.6406 23.074s0.8296 9.1645 0.9375 13.688c1.7254 15.045 2.5879 31.382 2.5879 49.016v89.271c0 25.41-3.6776 48.813-11.033 70.211-7.3556 20.729-17.385 38.784-30.09 54.164-13.374 14.711-29.088 26.413-47.143 35.105-18.723 8.6929-38.784 13.039-60.182 13.039-17.832 0-34.303-3.1149-49.418-9.3262-15.887 15.856-33.635 29.518-53.109 40.91 28.398 11.034 58.893 16.562 91.494 16.562 38.115 0 73.89-7.022 107.32-21.064 32.766-14.042 59.846-33.099 81.244-57.172l47.143 67.203h22.066v-605.83c0-67.537 4.3481-110.67 13.041-129.39 2.0061-4.6808 4.3448-8.3584 7.0195-11.033 2.6747-3.3434 6.6876-6.0174 12.037-8.0234 5.3495-2.6748 12.705-5.0154 22.066-7.0215 9.3616-2.0061 22.067-4.0115 38.115-6.0176v-25.076l-188.57-40.121zm-405.26 338.02c23.404 0 44.803 5.6831 64.195 17.051 20.061 11.368 37.112 27.417 51.154 48.146 14.042 20.061 25.075 44.467 33.1 73.221 8.0242 28.085 12.037 59.178 12.037 93.281 0 34.103-4.0129 65.198-12.037 93.283-7.3556 27.416-18.055 51.154-32.098 71.215-13.374 19.392-29.757 34.438-49.148 45.137-18.723 10.699-39.785 16.047-63.189 16.047-21.398 0-41.458-4.3462-60.182-13.039-18.055-8.6929-33.769-20.394-47.143-35.105-12.705-15.38-22.736-33.435-30.092-54.164-7.3556-21.398-11.033-44.801-11.033-70.211v-89.271c0-51.489 7.3553-91.943 22.066-121.37 11.368-23.404 27.75-41.459 49.148-54.164 21.398-13.374 45.805-20.061 73.221-20.061zm56.094 35.482c-18.258 20.043-33.117 43.059-44.59 69.039 1.1903-0.02646 2.3832-0.04492 3.5801-0.04492 20.898 0 43.121 3.461 66.754 10.078 10.943 3.0641 21.88 6.3467 32.811 9.832 1.2747-3.8519 2.6021-7.6291 3.9961-11.309-5.7069-13.725-12.286-25.851-19.68-36.414l-0.08398-0.11914-0.0918-0.12891c-12.086-17.841-26.192-31.224-42.695-40.934zm-70.781 208.09c1.4811 33.856 8.0589 65.672 19.736 95.449 12.908 32.27 30.504 60.478 52.756 84.65 16.504-9.1585 30.361-21.838 42.084-38.836l0.03711-0.05468 0.03906-0.05469c7.1223-10.175 13.359-21.52 18.676-34.102-3.1104-8.1596-5.8724-16.702-8.2715-25.645-4.7587-16.655-8.095-34.378-10.031-53.15-21.208-6.9112-42.407-13.12-63.594-18.613l-0.33203-0.08593-0.33008-0.09766c-18.005-5.3348-34.916-8.4373-50.768-9.4609h-0.00195z" fill="currentColor"/>
    <path d="m102.04 145.67c-9.8823 0-18.353 3.6468-25.412 10.941-5.202 5.3814-9.0347 12.338-11.502 20.864v8.43h10.09c1.6471-5.4118 3.5296-9.0591 5.6472-10.941 2.3529-2.1176 5.7645-3.176 10.235-3.176 5.6471 0 11.647 0.94073 18 2.8231 6.3529 1.6471 12.706 3.5296 19.059 5.6472 2.2712 0.75705 4.5012 1.4936 6.7122 2.2205 0.2298-2.7142 0.34881-5.525 0.34881-8.4388 0-7.8451-0.84401-14.96-2.4825-21.373-4.8204-1.6657-9.6407-3.1761-14.461-4.5258-5.8824-1.6471-11.294-2.4706-16.235-2.4706zm85.765 1.4118c-1.8824 5.6471-4.0002 9.5292-6.3531 11.647-1.5257 1.5257-3.6655 2.4989-6.4125 2.9254 0.49902 3.7782 0.75138 7.6429 0.75138 11.59 0 4.4818-0.31587 8.86-0.93793 13.129 4.3466-1.868 8.3117-4.8457 11.893-8.939 6.5882-7.7647 10.823-17.882 12.706-30.353z" fill="url(#bunbun_logo_a)" />
</svg>
