<svg width="250" height="250" version="1.1" viewBox="0 0 264.58 264.58" xmlns="http://www.w3.org/2000/svg" xmlns:xlink="http://www.w3.org/1999/xlink">
    <defs>
        <linearGradient id="byakko_logo_a" x1="465.69" x2="465.69" y1="905.87" y2="158.79" gradientUnits="userSpaceOnUse">
            <stop stop-color="#4f2b8a" offset="0"/>
            <stop stop-color="#845ec2" offset="1"/>
        </linearGradient>
    </defs>
    <path d="m36.048 256.05v-12.366q12.691-0.32542 20.176-1.9525 7.8101-1.6271 11.715-5.5321 4.2305-3.905 5.5321-11.064 1.6271-7.1592 1.6271-18.549v-151.65q0-11.39-1.3017-18.223-0.97626-7.1592-4.5559-11.064-3.2542-4.2305-9.7626-5.5321-6.5084-1.6271-16.922-2.2779v-12.366h97.3q43.932 0 68.338 15.62 24.406 15.62 24.406 43.932 0 21.478-13.668 35.145-13.342 13.668-42.63 22.454v1.3017q10.088 0.97626 17.573 2.2779 7.4846 1.3017 13.342 3.2542 5.8576 1.6271 10.739 4.2305 5.2067 2.6034 10.088 5.8575 28.962 20.501 28.962 51.416 0 17.247-9.7626 32.217-9.4372 14.644-26.684 23.105-5.5321 2.9288-11.39 4.8813-5.8576 1.6271-13.668 2.9288-7.8101 0.97627-18.223 1.6271-10.088 0.32543-24.081 0.32543zm118.13-13.993q58.901 0 58.901-50.44 0-36.772-30.264-51.416-5.2067-2.2779-10.088-3.905-4.8813-1.6271-11.39-2.278-6.5084-0.97625-15.62-1.3017-8.7863-0.32541-21.803-0.32541h-14.644v72.568q0 19.851 10.413 28.637 10.413 8.4609 34.494 8.4609zm-26.684-125.94q10.088 0 16.922-0.32541 6.8338-0.32542 11.715-0.97627 4.8813-0.97625 8.4609-2.2779 3.905-1.6271 7.8101-4.2304 10.413-6.5084 14.644-15.62 4.5559-9.1117 4.5559-23.756 0-25.708-12.691-36.772-12.366-11.39-39.05-11.39h-25.057q-5.5321 0-5.5321 5.5321v89.816z" fill="currentColor" />
    <path transform="scale(.26458)" d="m465.69 158.79-32.711 43.021v66.088l44.184-58.109 218.98 113.47c3.594-11.797 6.0698-25.557 7.2344-41.303zm0 175.72-32.711 43.021v41.342h18.811l25.373-33.371 62.502 32.387c1.7636-0.0721 3.5158-0.14472 5.1934-0.22461 16.537-0.78745 30.467-1.9726 41.887-3.4726 8.3194-1.6842 15.69-3.5481 22.053-5.5274zm-7.7129 185.86-24.998 32.877v66.086l43.969-57.828 308.33 167.96c0.0291-1.7349 0.0469-3.4818 0.0469-5.25 0-14.863-0.95389-28.793-2.8828-41.846l-297.29-161.95c-5.5054-0.0263-10.979-0.0566-16.83-0.0566zm-243.88 58.998-204.73 71.797 105.55 238.12 144.87-50.955c2.0587-11.893 3.3977-26.547 3.8594-43.762l-127.14 44.719-73.016-164.73 125.26-43.922 30.354 93.027-80.691 9.3301-19.873 2.2949 4.5996 39.738 19.865-2.3047 120.83-13.967v-26.975zm251.6 106.57-32.711 43.021v45.689c0 6.8406 0.26075 13.293 0.75781 19.396l43.426-57.113 244.03 126.45c5.5596-3.5244 10.72-7.3159 15.467-11.381 6.0794-5.2061 11.599-10.886 16.557-17.076z" fill="url(#byakko_logo_a)"/>
</svg>
