<svg width="250" height="250" version="1.1" viewBox="0 0 264.58 264.58" xmlns="http://www.w3.org/2000/svg" xmlns:xlink="http://www.w3.org/1999/xlink">
    <defs>
        <linearGradient id="byakko_logo_a" x1="465.69" x2="465.69" y1="905.87" y2="158.79" gradientUnits="userSpaceOnUse">
            <stop stop-color="var(--color-byakko-2)" offset="0"/>
            <stop stop-color="var(--color-byakko-1)" offset="1"/>
        </linearGradient>
    </defs>
    <path transform="scale(.26458)" d="m485.58 98.498v318.22c1.4323-0.02 2.7703-0.0341 4.207-0.0547 12.178-0.17454 24.308-0.36559 35.797-0.57422v-317.59zm0 422.94v406.3h-303.39l233.63-250.97v174.18h-67.006l47.932-53.535-29.801-26.678-107.64 120.21h196.51v-315.86l-365.51 392.65h435.28v-446.24c-0.26106-5.4e-4 -0.38241-1e-3 -0.64648-2e-3 -10.842-0.0222-25.339-0.0444-39.357-0.0664z" fill="url(#byakko_logo_a)"/>
    <path transform="scale(.26458)" d="m391.91 438.02-1e-5 63.221c3.7244 0.1082 155.35 0.2233 158.82 0.35157 22.959 0.81998 42.638 2.4601 59.037 4.9199 16.399 1.6399 30.75 4.5096 43.049 8.6094 12.299 4.0997 25.008 9.0201 38.127 14.76 76.256 36.898 114.38 101.67 114.38 194.33 0 127.09-92.641 192.6-241.05 192.86h-24.371v50.664h39.117c35.258 0 65.597-0.41049 91.016-1.2305 26.239-1.6399 49.196-3.6905 68.875-6.1504 19.679-3.2798 36.899-6.9686 51.658-11.068 14.759-4.9198 29.108-11.07 43.047-18.449 43.458-21.319 77.077-50.428 100.86-87.326 24.599-37.718 36.896-78.304 36.896-121.76 0-77.896-36.487-142.67-109.46-194.33-12.299-8.1995-25.01-15.579-38.129-22.139-12.299-6.5596-25.829-11.888-40.588-15.988-14.759-4.9197-31.567-9.019-50.426-12.299-18.859-3.2798-40.997-6.1515-66.416-8.6113v-4.918c73.796-22.139 127.5-50.427 161.12-84.865 34.438-34.438 51.658-78.717 51.658-132.83 0-71.336-30.748-126.68-92.244-166.04-61.497-39.358-147.59-59.035-258.29-59.035h-392.35v57.807h403.66v0.14648c61.467 1.542 106.9 15.837 136.28 42.9 31.978 27.878 47.969 74.206 47.969 138.98 0 36.898-5.7413 66.826-17.221 89.785-10.659 22.959-29.107 42.638-55.346 59.037-9.8394 6.5596-19.68 11.889-29.52 15.988-9.0195 3.2798-19.677 6.1495-31.977 8.6094-18.818 2.3872-33.846 3.4897-50.188 4.0742" fill="currentColor" />
</svg>