<svg width="250" height="250" version="1.1" viewBox="0 0 264.58 264.58" xmlns="http://www.w3.org/2000/svg" xmlns:xlink="http://www.w3.org/1999/xlink">
    <defs>
        <linearGradient id="core_logo_a" x1="551.3" x2="551.3" y1="842.66" y2="103.88" gradientUnits="userSpaceOnUse">
            <stop stop-color="#98acf8" offset="0"/>
            <stop stop-color="#bedcfa" offset="1"/>
        </linearGradient>
    </defs>
    <path transform="scale(.26458)" d="m551.3 103.88c-33.902 0-64.692 4.7859-92.725 14.232v239.47c0.23618 0.27468 0.46222 0.54936 0.70312 0.82422 14.118 15.532 39.815 34.094 76.645 53.625l0.0117 6e-3 29.553 15.721c13.221-9.956 24.253-20.499 33.088-31.664v-288.95c-15.101-2.1693-30.841-3.2656-47.275-3.2656zm67.275 83.559v63.951c7.0794 8.4405 12.753 17.976 17.008 28.613 6.3456 14.422 9.5176 29.997 9.5176 46.727 0 23.652-6.9225 46.15-20.768 67.494-13.268 21.344-32.306 40.382-57.111 57.111l-40.668-21.633c-38.074-20.191-65.476-39.516-82.205-57.977-16.729-19.037-25.096-40.093-25.096-63.168 0-24.671 6.4455-45.436 19.322-62.303v-55.717c-13.703 7.2202-26.493 16.268-38.359 27.162-17.883 16.729-31.726 35.767-41.533 57.111-9.23 21.344-13.846 43.842-13.846 67.494 0 68.071 40.67 124.03 122.01 167.87-96.915 46.727-145.37 106.14-145.37 178.25 0 23.075 5.1904 44.71 15.574 64.9 10.961 20.191 25.673 37.784 44.133 52.783 16.692 12.646 35.823 23.073 57.395 31.283v-57.844c-0.0942-0.089-0.19122-0.17431-0.28516-0.26367-23.075-23.075-34.611-54.227-34.611-93.455 0-32.882 8.3643-62.591 25.094-89.127 16.729-27.113 41.534-49.899 74.416-68.359l51.92 29.42c20.191 11.538 37.208 22.499 51.053 32.883 13.845 10.384 24.807 20.767 32.883 31.15 8.6532 10.384 14.711 21.057 18.172 32.018 4.0382 10.961 6.0566 22.787 6.0566 35.479 0 38.074-11.827 68.359-35.479 90.857-2.937 2.7902-6.0107 5.4009-9.2188 7.8359v48.336c24.015-9.6418 44.972-22.596 62.869-38.865 19.037-17.306 33.747-37.497 44.131-60.572 10.961-23.652 16.441-49.035 16.441-76.148 0-78.455-46.151-142.2-138.45-191.23 39.805-19.037 68.648-40.958 86.531-65.764 17.883-24.806 26.826-51.919 26.826-81.34 0-23.075-5.7691-44.419-17.307-64.033-10.961-20.191-27.115-37.786-48.459-52.785-10.465-7.089-21.327-13.132-32.582-18.146z" fill="url(#core_logo_a)" />
    <path d="m222.12 8.6793h9.0094l2.8959 74.006h-11.905q-7.0789-28.315-27.35-44.404-20.271-16.088-48.908-16.088-19.628 0-35.072 7.7224-15.445 7.7224-26.063 22.202-10.618 14.479-16.41 35.394-5.47 20.915-5.47 47.3 0 51.804 21.558 79.798 21.558 27.672 62.423 27.672 62.101 0 79.798-65.962h13.192v80.12h-11.262l-7.4006-25.42q-33.785 28.637-81.729 28.637-27.35 0-49.552-8.6877-21.88-8.6877-37.647-24.454-15.445-16.088-24.132-38.934-8.3659-22.845-8.3659-50.839 0-29.281 9.0094-53.413 9.0094-24.132 25.098-41.508 16.41-17.375 38.934-26.707 22.845-9.653 50.196-9.653 19.306 0 36.36 5.47 17.054 5.47 37.003 17.697z" fill="currentColor"/>
</svg>
