<svg width="250" height="250" version="1.1" viewBox="0 0 264.58 264.58" xmlns="http://www.w3.org/2000/svg" xmlns:xlink="http://www.w3.org/1999/xlink">
    <defs>
        <linearGradient id="core_logo_a" x1="551.3" x2="551.3" y1="842.66" y2="103.88" gradientUnits="userSpaceOnUse">
            <stop stop-color="#7041bb" offset="0"/>
            <stop stop-color="#9c76da" offset="1"/>
        </linearGradient>
    </defs>
    <path transform="scale(.26458)" d="m517.49 20.643c-37.461 0-73.243 3.6019-107.35 10.789h208.23c-32.153-7.1796-65.776-10.789-100.88-10.789zm299.17 12.16-20.375 108.23c-9.4769-9.2951-19.07-18.279-28.693-26.828h-102.09c16.837 8.4138 32.772 18.565 47.787 30.482 51.077 40.537 85.535 96.478 103.37 167.82h44.996l-10.945-279.71zm-587.71 81.402c-17.133 13.273-33.245 27.889-48.328 43.859-40.537 43.78-72.156 96.073-94.857 156.88-22.701 60.806-34.051 128.1-34.051 201.88 0 70.535 10.54 134.59 31.619 192.15 21.89 57.563 52.293 106.61 91.209 147.15 3.7805 3.7806 7.6307 7.4786 11.551 11.098h169.5c-22.289-15.15-42.105-33.843-59.439-56.094-54.32-70.535-81.48-171.07-81.48-301.6 0-66.481 6.893-126.07 20.676-178.77 14.593-52.699 35.267-97.29 62.021-133.77 26.24-35.782 58.333-63.37 96.271-82.775zm604.73 552.2c-24.927 92.91-67.342 159.84-127.23 200.81h95.857c4.3488-4.533 8.5951-9.1998 12.721-14.021l25.951 116.02h42.564v-302.81zm-513.07 283.59c54.969 20.917 116.13 31.383 183.5 31.383 60.877 0 120.11-10.067 173.59-31.383z" fill="#fff"/>
    <path transform="scale(.26458)" d="m85.711 51.43v212.4c7.9505-16.683 16.652-32.696 26.115-48.014l16.67-25.554v-96.054h656.25l8.0527-42.777zm785.74 0 1.6738 42.777h48.381v793.01h-17.963v42.785h60.748v-878.57zm-785.74 712.51v166.06h726l-9.0273-40.365-0.11523-2.4199h-674.07v-53.385l-30.937-47.81c-4.123-7.1958-8.0611-14.566-11.848-22.076z" fill="url(#core_logo_a)"/>
</svg>
