<svg width="250" height="250" version="1.1" viewBox="0 0 264.58 264.58" xmlns="http://www.w3.org/2000/svg" xmlns:xlink="http://www.w3.org/1999/xlink">
    <defs>
        <linearGradient id="hcui_logo_a" x1="498.96" x2="498.96" y1="112.02" y2="893.31" gradientUnits="userSpaceOnUse">
            <stop stop-color="var(--color-hcui-1)" offset="0"/>
            <stop stop-color="var(--color-hcui-2)" offset="1"/>
        </linearGradient>
    </defs>
    <path d="m9.8728 17.828v11.477c6.4435 0.40272 11.679 1.1078 15.706 2.1146 4.0272 0.80544 7.0479 2.5169 9.0615 5.1346 2.2149 2.4163 3.6241 5.8392 4.2282 10.269 0.80544 4.2285 1.2082 9.8666 1.2082 16.914v140.75c0 7.0476-0.40276 12.786-1.2082 17.216s-2.416 7.8534-4.8323 10.27c-2.4163 2.4163-5.8398 4.1278-10.27 5.1346-4.2285 1.0068-9.8666 1.6109-16.914 1.8123v11.477h97.861v-11.477c-7.0476-0.20136-12.786-0.80551-17.216-1.8123-4.2285-1.0068-7.551-2.7183-9.9674-5.1346-2.215-2.6177-3.725-6.242-4.5305-10.873-0.80544-4.8326-1.2082-11.075-1.2082-18.727v-63.428h26.85l-24.946-14.403-1.9043-0.69918v-57.992c0-7.6516 0.30181-13.793 0.90589-18.424 0.80544-4.6313 2.2151-8.2556 4.2287-10.873 2.2149-2.6177 5.2351-4.4301 9.0609-5.4369 4.0272-1.0068 9.2625-1.6109 15.706-1.8123v-11.477zm154.04 0v11.477c6.4435 0.40272 11.679 1.1078 15.706 2.1146 4.0272 0.80544 7.0479 2.5169 9.0615 5.1346 2.215 2.4163 3.6246 5.8392 4.2287 10.269 0.80543 4.2285 1.2077 9.8666 1.2077 16.914v60.106l-3.7801 0.69918-24.947 14.403h28.727v65.542c0 7.0476-0.40224 12.786-1.2077 17.216-0.80544 4.4299-2.4165 7.8534-4.8328 10.27-2.4163 2.4163-5.8398 4.1278-10.27 5.1346-4.2285 1.0068-9.8661 1.6109-16.914 1.8123v11.477h97.86v-11.477c-7.0476-0.20136-12.786-0.80551-17.216-1.8123-4.2285-1.0068-7.551-2.7183-9.9673-5.1346-2.215-2.6177-3.725-6.242-4.5305-10.873-0.80544-4.8326-1.2082-11.075-1.2082-18.727v-136.52c0-7.6516 0.3018-13.793 0.90588-18.424 0.80543-4.6313 2.2151-8.2556 4.2287-10.873 2.215-2.6177 5.2351-4.4301 9.0609-5.4369 4.0272-1.0068 9.2625-1.6109 15.706-1.8123v-11.477zm-49.096 106.02 17.199 9.9296 17.199-9.9296z" fill="currentColor"/>
    <path transform="scale(.26458)" d="m498.96 112.02-200.43 115.72v231.43l200.43 115.71 9.9941-5.7715 190.43-109.94v-231.43l-200.43-115.72zm0 46.189 160.42 92.621v185.24l-160.42 92.629-160.43-92.629v-185.24l160.43-92.621zm-161.85 386.94 114.95 66.367v185.24l-130.53 75.363c3.9494 1.7645 8.486 3.3026 13.736 4.5566 12.238 2.7702 28.496 4.776 48.314 5.8066l108.48-62.633v-231.43l-74.951-43.273h-80zm243.62 0-73.521 42.447v231.43l110.18 63.613c21.124-0.98499 37.975-3.0794 49.996-5.9414l0.09961-0.02344 0.10157-0.02148c4.8-1.0909 9.015-2.397 12.732-3.8672l-133.11-76.854v-185.24l113.52-65.541h-79.998zm-449.26 20.031-40.256 23.242v231.43l34.811 20.098c0.43832-1.7685 0.84299-3.6237 1.2012-5.5938 2.0735-11.404 3.452-26.231 3.9883-44.143v-178.7l0.25586-0.14843v-46.188zm742.06 2.4805v197.22c0 28.17 1.5292 50.829 4.2832 67.398 0.22758 1.3052 0.47668 2.56 0.73437 3.791l29.512-17.039v-231.43l-34.529-19.936z" fill="url(#hcui_logo_a)"/>
</svg>
