<svg width="250" height="250" version="1.1" viewBox="0 0 1000 1000" xmlns="http://www.w3.org/2000/svg" xmlns:xlink="http://www.w3.org/1999/xlink">
    <defs>
        <linearGradient id="seiryu_logo_a" x1="247.18" x2="247.18" y1="393.25" y2="98.87" gradientUnits="userSpaceOnUse">
            <stop stop-color="#bb345f" offset="0"/>
            <stop stop-color="#E55381" offset="1"/>
        </linearGradient>
    </defs>
    <path d="m318.35 100.26-304.61 142.45 171.04 122.22 145.11-68.452 18.168-8.5719-17.138-36.344-141.97 66.96-95.917-68.54 214.01-100.08 60.613 74.082c3.1459-16.176 7.6619-31.819 13.553-46.885zm45.027 211.18-66.939 31.939-18.131 8.6543 17.301 36.261 18.129-8.6464 56.071-26.756c-3.0929-13.194-5.2284-27.014-6.4314-41.453z" fill="url(#seiryu_logo_a)"/>
    <path d="m344.05 680.07h44.204c5.5752 35.841 15.929 68.097 31.062 96.77 15.929 28.673 35.442 52.965 58.54 72.876 23.894 19.911 50.973 35.442 81.239 46.593 31.062 10.354 64.513 15.531 100.35 15.531 58.938 0 105.53-13.938 139.78-41.814 34.248-27.876 51.372-65.708 51.372-113.5 0-19.911-3.584-38.23-10.752-54.956-6.3717-16.726-17.522-32.655-33.451-47.788-15.929-15.929-37.434-31.46-64.513-46.593-26.283-15.133-59.734-31.46-100.35-48.982-49.381-21.504-90.796-42.212-124.25-62.124-33.451-19.911-60.133-40.619-80.044-62.124-19.912-21.504-34.248-44.204-43.009-68.097-7.9646-24.69-11.947-52.566-11.947-83.628 0-36.637 6.3717-70.487 19.115-101.55 13.54-31.062 32.257-57.743 56.15-80.044 23.894-23.097 52.168-40.619 84.823-52.566 32.655-12.743 68.496-19.115 107.52-19.115 35.044 0 67.699 5.5752 97.965 16.726 30.266 11.15 60.929 29.071 91.991 53.761l31.062-53.761h27.478l13.142 237.74h-44.204c-19.115-65.31-46.991-113.89-83.628-145.75-35.841-31.858-79.248-47.788-130.22-47.788-48.584 0-87.212 11.947-115.88 35.841-28.673 23.894-43.009 56.15-43.009 96.77 0 19.115 3.1858 36.637 9.5575 52.566 6.3717 15.133 16.726 29.867 31.062 44.204 14.336 13.54 33.053 27.478 56.15 41.814 23.097 13.54 51.77 27.876 86.018 43.009 58.938 26.283 107.92 50.973 146.95 74.071 39.027 22.301 70.088 45 93.186 68.097 23.097 22.301 39.425 46.195 48.982 71.681 9.5575 24.69 14.336 52.566 14.336 83.628 0 39.823-7.9646 76.46-23.894 109.91-15.929 33.451-38.23 62.124-66.903 86.018-28.673 23.894-62.92 42.611-102.74 56.15-39.823 12.743-83.628 19.115-131.42 19.115-45.398 0-86.416-6.3717-123.05-19.115-35.841-12.743-72.478-34.248-109.91-64.513l-33.451 58.54h-27.478z" fill="#fff" />
</svg>
