<svg width="250" height="250" version="1.1" viewBox="0 0 264.58 264.58" xmlns="http://www.w3.org/2000/svg" xmlns:xlink="http://www.w3.org/1999/xlink">
    <defs>
        <linearGradient id="tse_logo_a" x1="346.87" x2="346.87" y1="107.14" y2="928.05" gradientTransform="scale(.26458)" gradientUnits="userSpaceOnUse">
            <stop stop-color="var(--color-tse-1)" offset="0"/>
            <stop stop-color="var(--color-tse-2)" offset="1"/>
        </linearGradient>
    </defs>
    <path d="m8.6791 8.9498v61.481h11.91c0.21459-11.373 1.9312-20.279 5.1501-26.717 3.2189-6.4378 7.4035-11.159 12.554-14.163 5.3648-3.2189 11.588-5.1507 18.669-5.7945 7.2961-0.64378 15.129-0.96532 23.498-0.96532 6.867 0 12.339 0.2147 16.416 0.64389 4.0773 0.21459 7.1889 0.75083 9.3348 1.6092 2.3605 0.85837 3.8624 1.9314 4.5062 3.2189 0.85837 1.073 1.2878 2.5749 1.2878 4.5062v172.21c0 6.867-0.53624 12.768-1.6092 17.704-0.14231 0.81831-0.31753 1.6106-0.51883 2.3818 0.23996 0.56151 0.49266 1.0854 0.75964 1.5622 1.7871 2.94 5.5854 5.6607 12.485 7.5546l3.8907 1.0682v14.317h-5.2917c-7.8092 0-14.48-0.53451-20.124-1.6965-4.7866-0.98547-9.0592-2.6697-12.648-5.1444-5.097 1.0522-11.358 1.6684-18.789 1.8454v12.232h121.67v-12.232c-7.473-0.17793-13.762-0.80035-18.874-1.8635-3.5086 2.4974-7.7404 4.1802-12.511 5.1625-5.6442 1.162-12.315 1.6965-20.124 1.6965h-5.2917v-14.317l3.8907-1.0682c6.9277-1.9017 10.598-4.618 12.224-7.4879l0.0326-0.0574 0.0336-0.0563c0.32366-0.53944 0.62744-1.1393 0.91312-1.788-0.19372-0.68535-0.37116-1.3868-0.52813-2.1089-0.85837-4.9356-1.2878-10.837-1.2878-17.704v-172.21c0-1.9313 0.32206-3.4332 0.96583-4.5062 0.85837-1.2876 2.575-2.3606 5.1501-3.2189 2.5751-0.85837 6.2235-1.3946 10.945-1.6092 4.9356-0.42918 11.373-0.64389 19.313-0.64389 9.2275 0 17.167 0.75094 23.82 2.2531 6.6524 1.5021 12.125 4.077 16.417 7.7251 4.5064 3.4335 7.9396 8.2622 10.3 14.485 2.3605 6.2232 3.8629 13.948 4.5067 23.176h13.197l-3.219-61.481z" fill="currentColor"/>
    <path d="m91.776 28.348c-0.90544 0.68217-1.7394 1.4205-2.4975 2.2185-2.8737 3.0249-4.8401 7.033-5.8989 12.024-1.0587 4.8398-1.588 10.889-1.588 18.149v39.702c0 4.3861-0.30246 8.243-0.90744 11.57-0.45373 3.1762-1.4367 5.9744-2.9492 8.3943-1.3612 2.2687-3.4028 4.159-6.1252 5.6715-2.5712 1.5125-5.9743 2.7228-10.209 3.6303v5.6715c3.7811 0.30249 6.9569 1.4367 9.5281 3.4029 2.7224 1.815 4.8401 4.0839 6.3526 6.8063 1.5125 2.7224 2.5711 5.8226 3.176 9.3012 0.75623 3.3274 1.1343 6.6549 1.1343 9.9823v44.466c0 6.806 0.60492 12.478 1.8149 17.016 1.3612 4.5374 3.5545 8.0912 6.5794 10.662 3.1762 2.7224 7.3354 4.6133 12.478 5.672 5.1423 1.0587 11.494 1.588 19.057 1.588v-4.9909c-7.7135-2.1174-12.931-5.445-15.654-9.9823-2.5712-4.5374-3.8566-10.89-3.8566-19.057v-44.92c0-4.5374-0.30245-8.621-0.90744-12.251-0.60498-3.6299-1.7397-6.8057-3.4034-9.5281-1.5125-2.7224-3.7809-4.9157-6.8058-6.5794-2.8737-1.815-6.5793-3.1004-11.117-3.8566v-1.1343c4.8399-1.0587 8.6967-2.5715 11.57-4.5377 2.8737-2.1174 5.0665-4.6883 6.5789-7.7132 1.6637-3.0249 2.7228-6.4281 3.1765-10.209 0.60499-3.9324 0.90744-8.2429 0.90744-12.932v-40.609c0-8.1673 1.2854-14.519 3.8566-19.057 0.20337-0.35026 0.42069-0.69156 0.64854-1.0258v-3.1254c0-0.86058-0.13466-1.1821-0.15606-1.2314l-0.32298-0.40411-0.14211-0.28629c0.0553 0.1383-0.32434-0.33386-1.6914-0.83096l-0.0791-0.02739-0.0796-0.03204c-1.2141-0.48564-3.891-1.0379-7.6471-1.2356l-0.13849-0.0078-0.13488-0.01654c-1.3215-0.1391-2.847-0.25454-4.5475-0.34778zm78.693 0.16226c-0.92362 0.05955-1.8158 0.12267-2.6396 0.1943l-0.11111 0.01188-0.10697 0.0041c-4.4449 0.20204-7.7323 0.74912-9.5126 1.3426-1.6552 0.55174-2.2613 1.1061-2.3146 1.1136-0.023 0.07476-0.18397 0.49102-0.18397 1.5911v3.8876c0.0503 0.08771 0.1012 0.17481 0.14986 0.26355 2.7224 4.5374 4.084 10.889 4.084 19.057v40.609c0 4.6886 0.22684 8.9991 0.68058 12.932 0.60498 3.7811 1.6636 7.1843 3.176 10.209 1.6637 3.0249 3.9321 5.5958 6.8058 7.7132 2.8737 1.9662 6.7305 3.479 11.57 4.5377v1.1343c-4.5374 0.75623-8.3186 2.0417-11.343 3.8566-2.8737 1.6637-5.1421 3.857-6.8058 6.5794-1.5124 2.7224-2.571 5.8982-3.176 9.5281s-0.90744 7.7136-0.90744 12.251v44.92c0 8.1672-1.3616 14.52-4.084 19.057-2.5712 4.5374-7.7134 7.8649-15.427 9.9823v4.9909c7.5623 0 13.915-0.5293 19.057-1.588 5.1424-1.0587 9.2255-2.9496 12.25-5.672 3.1762-2.5712 5.3695-6.125 6.5794-10.662 1.3612-4.5374 2.0417-10.209 2.0417-17.016v-44.466c0-3.3274 0.30246-6.6549 0.90744-9.9823 0.75623-3.4786 1.8904-6.5788 3.4029-9.3012 1.5125-2.7224 3.5546-4.9914 6.1257-6.8063 2.5712-1.9662 5.8231-3.1004 9.7555-3.4029v-5.6715c-4.2349-0.90747-7.7136-2.1178-10.436-3.6303-2.5712-1.5124-4.6133-3.4028-6.1257-5.6715-1.3612-2.4199-2.3442-5.2182-2.9492-8.3943-0.45373-3.3274-0.68058-7.1842-0.68058-11.57v-39.702c0-7.2598-0.52929-13.309-1.588-18.149-1.0587-4.9911-3.0247-8.9992-5.8984-12.024-0.69813-0.73488-1.4645-1.4195-2.2965-2.0562z" fill="url(#tse_logo_a)" />
</svg>
