<svg width="250" height="250" version="1.1" viewBox="0 0 264.58 264.58" xmlns="http://www.w3.org/2000/svg" xmlns:xlink="http://www.w3.org/1999/xlink">
    <defs>
        <linearGradient id="nodi_logo_a" x1="508.37" x2="508.37" y1="584.49" y2="32.16" gradientUnits="userSpaceOnUse">
            <stop stop-color="#d3b153" offset="0"/>
            <stop stop-color="#fbd46d" offset="1"/>
        </linearGradient>
    </defs>
    <path transform="scale(.26458)" d="m508.37 32.16-118.06 323.31-130.37-178.03v400.48h205.95l-27.33-36.018h-144.18v-258.2l106.09 144.89 106.06-290.46 97.549 299.26 102.91-158.63-0.86133 300.35 34.436 0.10937 1.1992-418.21-127.38 196.36zm153.35 509.74 26.072 34.783v-34.783z" fill="url(#nodi_logo_a)" />
    <path d="m8.631 12.431v11.838c6.6459 0.41537 12.046 1.3497 16.2 2.8034 4.1537 1.2461 7.2688 3.5309 9.3457 6.8538 2.2845 3.3229 3.7384 7.8915 4.3615 13.707 0.83073 5.6075 1.2459 12.773 1.2459 21.495v126.48c0 9.7611-0.41518 17.549-1.2459 23.364-0.83074 5.6075-2.4925 9.9687-4.9847 13.084-2.4922 3.1153-6.0226 5.2961-10.592 6.5422-4.3614 1.0384-10.177 1.6614-17.445 1.8691v11.838h83.801v-11.838c-6.6459-0.20768-12.046-0.83073-16.2-1.8691-3.946-1.0384-7.0612-3.2193-9.3457-6.5422-2.0768-3.3229-3.5308-7.9954-4.3615-14.018-0.62305-6.0228-0.93431-14.227-0.93431-24.611v-133.02c-1e-6 -15.342-1e-6 -26.279-1e-6 -37.675l43.216 60.21 7.0342-19.263-38.413-51.246zm168.22 0v11.838c6.6459 0.20768 11.941 0.83072 15.887 1.8691 4.1537 1.0384 7.2694 3.2188 9.3462 6.5417 2.2845 3.3229 3.7379 8.0999 4.361 14.33 0.83075 6.0228 1.2464 14.122 1.2464 24.299v122.74h-1.2464l-83.589-111.52-15.058 41.238 99.893 131.65h18.691v-186.29c0-9.5535 0.41517-17.238 1.2459-23.053 0.83074-5.8152 2.4925-10.28 4.9847-13.396 2.4922-3.1153 5.9192-5.1922 10.281-6.2306 4.569-1.2461 10.488-1.9725 17.757-2.1802v-11.838zm-93.676 78.814v0.07545l1.5834 2.0872z" fill="currentColor" />
</svg>
